<!DOCTYPE svg PUBLIC "-//W3C//DTD SVG 1.1//EN" "http://www.w3.org/Graphics/SVG/1.1/DTD/svg11.dtd">
<svg width="106mm" height="22.05mm" viewBox="0 0 106 22.05" xmlns="http://www.w3.org/2000/svg" version="1.1" xmlns:xlink="http://www.w3.org/1999/xlink">
<title>Airfoil plot (n6409-il) NACA6409 9% by AirfoilTools.com</title>
<rect width="100%" height="100%" fill="white"/>
<g transform="translate(3,13.36)"><g transform="scale(1,-1)"><line fill="none" stroke="green" stroke-width="0.05" x1="10" x2="10" y1="-4.19" y2="13.36"></line><line fill="none" stroke="green" stroke-width="0.05" x1="20" x2="20" y1="-4.19" y2="13.36"></line><line fill="none" stroke="green" stroke-width="0.05" x1="30" x2="30" y1="-4.19" y2="13.36"></line><line fill="none" stroke="green" stroke-width="0.05" x1="40" x2="40" y1="-4.19" y2="13.36"></line><line fill="none" stroke="green" stroke-width="0.05" x1="50" x2="50" y1="-4.19" y2="13.36"></line><line fill="none" stroke="green" stroke-width="0.05" x1="60" x2="60" y1="-4.19" y2="13.36"></line><line fill="none" stroke="green" stroke-width="0.05" x1="70" x2="70" y1="-4.19" y2="13.36"></line><line fill="none" stroke="green" stroke-width="0.05" x1="80" x2="80" y1="-4.19" y2="13.36"></line><line fill="none" stroke="green" stroke-width="0.05" x1="90" x2="90" y1="-4.19" y2="13.36"></line><line fill="none" stroke="green" stroke-width="0.05" x1="100" x2="100" y1="-4.19" y2="13.36"></line><line fill="none" stroke="green" stroke-width="0.05" x1="-3" x2="103" y1="10" y2="10"></line>
<path fill="none" stroke="red" stroke-width="0.3" d="M 100 0 L 99.73 0.08 L 98.93 0.33 L 97.6 0.74 L 95.76 1.28 L 93.42 1.95 L 90.62 2.72 L 87.36 3.57 L 83.69 4.46 L 79.65 5.38 L 75.27 6.28 L 70.61 7.15 L 65.71 7.96 L 60.63 8.68 L 55.41 9.3 L 50.13 9.8 L 44.84 10.15 L 39.59 10.36 L 34.37 10.35 L 29.32 10.09 L 24.5 9.58 L 19.99 8.87 L 15.83 7.99 L 12.08 6.98 L 8.78 5.89 L 5.97 4.76 L 3.68 3.65 L 1.92 2.58 L 0.72 1.6 L 0.08 0.74 L 0 0 L 0.47 -0.57 L 1.47 -0.96 L 2.97 -1.16 L 4.97 -1.19 L 7.43 -1.08 L 10.32 -0.84 L 13.61 -0.51 L 17.26 -0.12 L 21.24 0.31 L 25.5 0.73 L 30.01 1.11 L 34.73 1.43 L 39.62 1.64 L 44.71 1.77 L 49.87 1.87 L 55.04 1.93 L 60.17 1.93 L 65.19 1.88 L 70.07 1.78 L 74.73 1.63 L 79.13 1.45 L 83.22 1.24 L 86.96 1.02 L 90.29 0.79 L 93.18 0.58 L 95.59 0.38 L 97.5 0.22 L 98.88 0.1 L 99.72 0.03 L 100 0 "></path>
<path fill="none" stroke="blue" stroke-width="0.1" d="M 0 0 L 100 0 "></path>
<line fill="none" stroke="black" stroke-width="0.1" x1="-3" x2="103" y1="0" y2="0"></line>
<line fill="none" stroke="black" stroke-width="0.1" x1="0" x2="0" y1="-4.19" y2="13.36"></line>
</g>
</g>
<g transform="translate(0,17.552)"><g transform="scale(1,1)"><text fill="rgb(48,48,144)" font-size="1.8" style="font-family:Arial,Helvetica,sans-serif;" x="1" y="2">Name = NACA6409 9%</text><text fill="rgb(48,48,144)" font-size="1.8" style="font-family:Arial,Helvetica,sans-serif;" x="1" y="4">Chord = 100mm  Radius = 0mm  Thickness = 100%  Origin = 0%  Pitch = 0&#176; </text></g></g></svg>
