<!DOCTYPE svg PUBLIC "-//W3C//DTD SVG 1.1//EN" "http://www.w3.org/Graphics/SVG/1.1/DTD/svg11.dtd">
<svg width="106mm" height="23.18mm" viewBox="0 0 106 23.18" xmlns="http://www.w3.org/2000/svg" version="1.1" xmlns:xlink="http://www.w3.org/1999/xlink">
<title>Airfoil plot (naca4412-il) NACA 4412 by AirfoilTools.com</title>
<rect width="100%" height="100%" fill="white"/>
<g transform="translate(3,12.8)"><g transform="scale(1,-1)"><line fill="none" stroke="green" stroke-width="0.05" x1="10" x2="10" y1="-5.88" y2="12.8"></line><line fill="none" stroke="green" stroke-width="0.05" x1="20" x2="20" y1="-5.88" y2="12.8"></line><line fill="none" stroke="green" stroke-width="0.05" x1="30" x2="30" y1="-5.88" y2="12.8"></line><line fill="none" stroke="green" stroke-width="0.05" x1="40" x2="40" y1="-5.88" y2="12.8"></line><line fill="none" stroke="green" stroke-width="0.05" x1="50" x2="50" y1="-5.88" y2="12.8"></line><line fill="none" stroke="green" stroke-width="0.05" x1="60" x2="60" y1="-5.88" y2="12.8"></line><line fill="none" stroke="green" stroke-width="0.05" x1="70" x2="70" y1="-5.88" y2="12.8"></line><line fill="none" stroke="green" stroke-width="0.05" x1="80" x2="80" y1="-5.88" y2="12.8"></line><line fill="none" stroke="green" stroke-width="0.05" x1="90" x2="90" y1="-5.88" y2="12.8"></line><line fill="none" stroke="green" stroke-width="0.05" x1="100" x2="100" y1="-5.88" y2="12.8"></line><line fill="none" stroke="green" stroke-width="0.05" x1="-3" x2="103" y1="10" y2="10"></line>
<path fill="none" stroke="red" stroke-width="0.3" d="M 100 0.13 L 95 1.47 L 90 2.71 L 80 4.89 L 70 6.69 L 60 8.14 L 50 9.19 L 40 9.8 L 30 9.76 L 25 9.41 L 20 8.8 L 15 7.89 L 10 6.59 L 7.5 5.76 L 5 4.73 L 2.5 3.39 L 1.25 2.44 L 0 0 L 1.25 -1.43 L 2.5 -1.95 L 5 -2.49 L 7.5 -2.74 L 10 -2.86 L 15 -2.88 L 20 -2.74 L 25 -2.5 L 30 -2.26 L 40 -1.8 L 50 -1.4 L 60 -1 L 70 -0.65 L 80 -0.39 L 90 -0.22 L 95 -0.16 L 100 -0.13 "></path>
<path fill="none" stroke="blue" stroke-width="0.1" d="M 0 0 L 100 0 "></path>
<line fill="none" stroke="black" stroke-width="0.1" x1="-3" x2="103" y1="0" y2="0"></line>
<line fill="none" stroke="black" stroke-width="0.1" x1="0" x2="0" y1="-5.88" y2="12.8"></line>
</g>
</g>
<g transform="translate(0,18.68)"><g transform="scale(1,1)"><text fill="rgb(48,48,144)" font-size="1.8" style="font-family:Arial,Helvetica,sans-serif;" x="1" y="2">Name = NACA 4412</text><text fill="rgb(48,48,144)" font-size="1.8" style="font-family:Arial,Helvetica,sans-serif;" x="1" y="4">Chord = 100mm  Radius = 0mm  Thickness = 100%  Origin = 0%  Pitch = 0&#176; </text></g></g></svg>
